<?xml version="1.0" encoding="UTF-8" standalone="no"?>
<!DOCTYPE svg PUBLIC "-//W3C//DTD SVG 1.1//EN"
 "http://www.w3.org/Graphics/SVG/1.1/DTD/svg11.dtd">
<!-- Generated by graphviz version 2.43.0 (0)
 -->
<!-- Title: %3 Pages: 1 -->
<svg width="470pt" height="260pt"
 viewBox="0.00 0.00 470.39 260.00" xmlns="http://www.w3.org/2000/svg" xmlns:xlink="http://www.w3.org/1999/xlink">
<g id="graph0" class="graph" transform="scale(1 1) rotate(0) translate(4 256)">
<title>%3</title>
<polygon fill="white" stroke="transparent" points="-4,4 -4,-256 466.39,-256 466.39,4 -4,4"/>
<!-- EEE -->
<g id="node1" class="node">
<title>EEE</title>
<ellipse fill="none" stroke="black" cx="231.2" cy="-234" rx="31.4" ry="18"/>
<text text-anchor="middle" x="231.2" y="-230.3" font-family="Times,serif" font-size="14.00">EEE</text>
</g>
<!-- XEE -->
<g id="node2" class="node">
<title>XEE</title>
<ellipse fill="none" stroke="black" cx="231.2" cy="-162" rx="30.59" ry="18"/>
<text text-anchor="middle" x="231.2" y="-158.3" font-family="Times,serif" font-size="14.00">XEE</text>
</g>
<!-- EEE&#45;&gt;XEE -->
<g id="edge1" class="edge">
<title>EEE&#45;&gt;XEE</title>
<path fill="none" stroke="black" d="M231.2,-215.7C231.2,-207.98 231.2,-198.71 231.2,-190.11"/>
<polygon fill="black" stroke="black" points="234.7,-190.1 231.2,-180.1 227.7,-190.1 234.7,-190.1"/>
</g>
<!-- EXE -->
<g id="node7" class="node">
<title>EXE</title>
<ellipse fill="none" stroke="black" cx="351.2" cy="-162" rx="30.59" ry="18"/>
<text text-anchor="middle" x="351.2" y="-158.3" font-family="Times,serif" font-size="14.00">EXE</text>
</g>
<!-- EEE&#45;&gt;EXE -->
<g id="edge6" class="edge">
<title>EEE&#45;&gt;EXE</title>
<path fill="none" stroke="black" d="M252.37,-220.65C271.57,-209.45 300.05,-192.84 321.51,-180.32"/>
<polygon fill="black" stroke="black" points="323.36,-183.29 330.23,-175.23 319.83,-177.25 323.36,-183.29"/>
</g>
<!-- EEX -->
<g id="node11" class="node">
<title>EEX</title>
<ellipse fill="none" stroke="black" cx="111.2" cy="-162" rx="30.59" ry="18"/>
<text text-anchor="middle" x="111.2" y="-158.3" font-family="Times,serif" font-size="14.00">EEX</text>
</g>
<!-- EEE&#45;&gt;EEX -->
<g id="edge11" class="edge">
<title>EEE&#45;&gt;EEX</title>
<path fill="none" stroke="black" d="M210.02,-220.65C190.83,-209.45 162.35,-192.84 140.88,-180.32"/>
<polygon fill="black" stroke="black" points="142.56,-177.25 132.16,-175.23 139.04,-183.29 142.56,-177.25"/>
</g>
<!-- XOE -->
<g id="node3" class="node">
<title>XOE</title>
<ellipse fill="none" stroke="black" cx="191.2" cy="-90" rx="31.4" ry="18"/>
<text text-anchor="middle" x="191.2" y="-86.3" font-family="Times,serif" font-size="14.00">XOE</text>
</g>
<!-- XEE&#45;&gt;XOE -->
<g id="edge2" class="edge">
<title>XEE&#45;&gt;XOE</title>
<path fill="none" stroke="black" d="M221.92,-144.76C217.14,-136.4 211.21,-126.02 205.83,-116.61"/>
<polygon fill="black" stroke="black" points="208.7,-114.58 200.7,-107.63 202.62,-118.05 208.7,-114.58"/>
</g>
<!-- XEO -->
<g id="node5" class="node">
<title>XEO</title>
<ellipse fill="none" stroke="black" cx="271.2" cy="-90" rx="31.4" ry="18"/>
<text text-anchor="middle" x="271.2" y="-86.3" font-family="Times,serif" font-size="14.00">XEO</text>
</g>
<!-- XEE&#45;&gt;XEO -->
<g id="edge4" class="edge">
<title>XEE&#45;&gt;XEO</title>
<path fill="none" stroke="black" d="M240.47,-144.76C245.25,-136.4 251.19,-126.02 256.57,-116.61"/>
<polygon fill="black" stroke="black" points="259.77,-118.05 261.69,-107.63 253.69,-114.58 259.77,-118.05"/>
</g>
<!-- XOX -->
<g id="node4" class="node">
<title>XOX</title>
<ellipse fill="none" stroke="black" cx="31.2" cy="-18" rx="30.59" ry="18"/>
<text text-anchor="middle" x="31.2" y="-14.3" font-family="Times,serif" font-size="14.00">XOX</text>
</g>
<!-- XOE&#45;&gt;XOX -->
<g id="edge3" class="edge">
<title>XOE&#45;&gt;XOX</title>
<path fill="none" stroke="black" d="M166.9,-78.37C139.52,-66.39 94.88,-46.86 64.33,-33.49"/>
<polygon fill="black" stroke="black" points="65.51,-30.19 54.94,-29.39 62.7,-36.6 65.51,-30.19"/>
</g>
<!-- XXO -->
<g id="node6" class="node">
<title>XXO</title>
<ellipse fill="none" stroke="black" cx="351.2" cy="-18" rx="30.59" ry="18"/>
<text text-anchor="middle" x="351.2" y="-14.3" font-family="Times,serif" font-size="14.00">XXO</text>
</g>
<!-- XEO&#45;&gt;XXO -->
<g id="edge5" class="edge">
<title>XEO&#45;&gt;XXO</title>
<path fill="none" stroke="black" d="M287.77,-74.5C299.22,-64.48 314.62,-51.01 327.37,-39.85"/>
<polygon fill="black" stroke="black" points="329.7,-42.47 334.92,-33.25 325.09,-37.2 329.7,-42.47"/>
</g>
<!-- OXE -->
<g id="node8" class="node">
<title>OXE</title>
<ellipse fill="none" stroke="black" cx="351.2" cy="-90" rx="31.4" ry="18"/>
<text text-anchor="middle" x="351.2" y="-86.3" font-family="Times,serif" font-size="14.00">OXE</text>
</g>
<!-- EXE&#45;&gt;OXE -->
<g id="edge7" class="edge">
<title>EXE&#45;&gt;OXE</title>
<path fill="none" stroke="black" d="M351.2,-143.7C351.2,-135.98 351.2,-126.71 351.2,-118.11"/>
<polygon fill="black" stroke="black" points="354.7,-118.1 351.2,-108.1 347.7,-118.1 354.7,-118.1"/>
</g>
<!-- EXO -->
<g id="node10" class="node">
<title>EXO</title>
<ellipse fill="none" stroke="black" cx="431.2" cy="-90" rx="31.4" ry="18"/>
<text text-anchor="middle" x="431.2" y="-86.3" font-family="Times,serif" font-size="14.00">EXO</text>
</g>
<!-- EXE&#45;&gt;EXO -->
<g id="edge9" class="edge">
<title>EXE&#45;&gt;EXO</title>
<path fill="none" stroke="black" d="M367.77,-146.5C379.04,-136.64 394.12,-123.44 406.76,-112.38"/>
<polygon fill="black" stroke="black" points="409.42,-114.7 414.64,-105.49 404.81,-109.44 409.42,-114.7"/>
</g>
<!-- OXX -->
<g id="node9" class="node">
<title>OXX</title>
<ellipse fill="none" stroke="black" cx="191.2" cy="-18" rx="30.59" ry="18"/>
<text text-anchor="middle" x="191.2" y="-14.3" font-family="Times,serif" font-size="14.00">OXX</text>
</g>
<!-- OXE&#45;&gt;OXX -->
<g id="edge8" class="edge">
<title>OXE&#45;&gt;OXX</title>
<path fill="none" stroke="black" d="M326.9,-78.37C299.52,-66.39 254.88,-46.86 224.33,-33.49"/>
<polygon fill="black" stroke="black" points="225.51,-30.19 214.94,-29.39 222.7,-36.6 225.51,-30.19"/>
</g>
<!-- EXO&#45;&gt;XXO -->
<g id="edge10" class="edge">
<title>EXO&#45;&gt;XXO</title>
<path fill="none" stroke="black" d="M414.62,-74.5C403.18,-64.48 387.78,-51.01 375.02,-39.85"/>
<polygon fill="black" stroke="black" points="377.31,-37.2 367.48,-33.25 372.7,-42.47 377.31,-37.2"/>
</g>
<!-- OEX -->
<g id="node12" class="node">
<title>OEX</title>
<ellipse fill="none" stroke="black" cx="111.2" cy="-90" rx="31.4" ry="18"/>
<text text-anchor="middle" x="111.2" y="-86.3" font-family="Times,serif" font-size="14.00">OEX</text>
</g>
<!-- EEX&#45;&gt;OEX -->
<g id="edge12" class="edge">
<title>EEX&#45;&gt;OEX</title>
<path fill="none" stroke="black" d="M111.2,-143.7C111.2,-135.98 111.2,-126.71 111.2,-118.11"/>
<polygon fill="black" stroke="black" points="114.7,-118.1 111.2,-108.1 107.7,-118.1 114.7,-118.1"/>
</g>
<!-- EOX -->
<g id="node13" class="node">
<title>EOX</title>
<ellipse fill="none" stroke="black" cx="31.2" cy="-90" rx="31.4" ry="18"/>
<text text-anchor="middle" x="31.2" y="-86.3" font-family="Times,serif" font-size="14.00">EOX</text>
</g>
<!-- EEX&#45;&gt;EOX -->
<g id="edge14" class="edge">
<title>EEX&#45;&gt;EOX</title>
<path fill="none" stroke="black" d="M94.62,-146.5C83.36,-136.64 68.27,-123.44 55.64,-112.38"/>
<polygon fill="black" stroke="black" points="57.58,-109.44 47.75,-105.49 52.97,-114.7 57.58,-109.44"/>
</g>
<!-- OEX&#45;&gt;OXX -->
<g id="edge13" class="edge">
<title>OEX&#45;&gt;OXX</title>
<path fill="none" stroke="black" d="M127.77,-74.5C139.22,-64.48 154.62,-51.01 167.37,-39.85"/>
<polygon fill="black" stroke="black" points="169.7,-42.47 174.92,-33.25 165.09,-37.2 169.7,-42.47"/>
</g>
<!-- EOX&#45;&gt;XOX -->
<g id="edge15" class="edge">
<title>EOX&#45;&gt;XOX</title>
<path fill="none" stroke="black" d="M31.2,-71.7C31.2,-63.98 31.2,-54.71 31.2,-46.11"/>
<polygon fill="black" stroke="black" points="34.7,-46.1 31.2,-36.1 27.7,-46.1 34.7,-46.1"/>
</g>
</g>
</svg>
