<?xml version="1.0" encoding="UTF-8" standalone="no"?>
<svg
   xmlns:dc="http://purl.org/dc/elements/1.1/"
   xmlns:cc="http://creativecommons.org/ns#"
   xmlns:rdf="http://www.w3.org/1999/02/22-rdf-syntax-ns#"
   xmlns:svg="http://www.w3.org/2000/svg"
   xmlns="http://www.w3.org/2000/svg"
   xmlns:sodipodi="http://sodipodi.sourceforge.net/DTD/sodipodi-0.dtd"
   xmlns:inkscape="http://www.inkscape.org/namespaces/inkscape"
   version="1.1"
   id="svg2"
   width="2560"
   height="2276"
   viewBox="0 0 2560 2276"
   sodipodi:docname="tictactoe_simple.svg"
   inkscape:version="1.0.2 (e86c870879, 2021-01-15)">
  <metadata
     id="metadata8">
    <rdf:RDF>
      <cc:Work
         rdf:about="">
        <dc:format>image/svg+xml</dc:format>
        <dc:type
           rdf:resource="http://purl.org/dc/dcmitype/StillImage" />
        <dc:title></dc:title>
      </cc:Work>
    </rdf:RDF>
  </metadata>
  <defs
     id="defs6" />
  <sodipodi:namedview
     pagecolor="#ffffff"
     bordercolor="#666666"
     borderopacity="1"
     objecttolerance="10"
     gridtolerance="10"
     guidetolerance="10"
     inkscape:pageopacity="0"
     inkscape:pageshadow="2"
     inkscape:window-width="1920"
     inkscape:window-height="1016"
     id="namedview4"
     showgrid="false"
     inkscape:zoom="0.27153397"
     inkscape:cx="1307.5371"
     inkscape:cy="1262.0461"
     inkscape:window-x="0"
     inkscape:window-y="27"
     inkscape:window-maximized="1"
     inkscape:current-layer="g10" />
  <g
     inkscape:groupmode="layer"
     inkscape:label="Image"
     id="g10">
    <path
       id="path837"
       style="fill:#990000;fill-opacity:1"
       d="m 874.29572,2218.1828 c -60.86618,-194.267 -42.06847,-402.76 -50.33741,-604.007 9.41882,-84.7602 2.42031,-160.2926 -103.45831,-135.6877 -205.451,-19.3807 -414.13745,-23.2272 -616.43929,-64.4423 80.95201,-23.1222 192.07069,-10.8307 283.78729,-15.244 142.7301,-0.6083 285.44548,1.5017 428.15371,3.6982 -8.31419,-171.6417 -17.22067,-343.308 -27.92147,-514.81983 -219.85856,-6.55554 -440.96315,7.62244 -659.92628,-16.40224 -95.600501,-98.04923 120.19646,-97.30742 195.01845,-95.8885 110.89822,-3.9724 221.87795,-2.63432 332.80816,-4.7142 -72.97844,-125.34912 -173.59813,-3.99438 -281.49,-22.92626 C 239.5674,753.85696 174.50774,596.27237 209.43425,483.0243 277.64359,401.75947 211.10043,353.59589 152.93615,295.09157 100.53605,225.77332 -0.11344046,114.78607 33.29322,34.913084 132.85774,2.6314009 157.51611,188.51851 244.97234,234.90082 c 62.22504,139.93213 188.29252,-5.25543 287.93664,74.70068 5.82957,45.30345 -30.19332,96.37872 38.63385,133.19974 58.49052,75.48752 36.70473,181.85661 138.95715,223.82633 43.3799,42.50604 91.40754,91.01961 68.37716,-5.31213 -3.13497,-142.57411 -14.32102,-286.26214 0.30808,-428.3404 107.08239,-82.07655 97.74634,133.86647 104.48574,208.45773 6.75041,110.02512 10.80207,220.19216 14.61873,330.35107 224.15971,3.81478 448.34601,6.31305 672.48121,11.53354 15.6862,-169.70133 11.2503,-344.43631 48.6475,-510.31738 34.4746,156.78074 22.9296,322.33936 30.6018,482.89246 48.279,71.39783 217.8709,15.15155 312.0652,38.65591 52.6102,0.43837 169.9751,18.34584 66.3408,-37.50059 -82.5811,-133.54993 -188.5738,40.78954 -302.3811,4.16979 9.9086,-60.96164 240.5843,-109.09294 105.8655,-192.18629 -46.7935,-59.69479 -194.9983,-236.7162 -43.8569,-249.01941 76.2311,57.54068 109.5804,189.22288 182.5655,236.45678 85.0557,-52.53279 181.819,-208.02622 281.0379,-172.6801 63.8481,107.89021 -127.2404,164.8869 -188.4914,234.35425 -71.3055,36.30259 129.4524,208.70942 94.2086,179.8672 122.3454,5.90933 254.5964,-4.8797 366.4692,52.10356 -255.9614,-9.76742 -511.6996,24.842 -768.021,24.04402 -163.1411,-44.90728 -84.8777,143.14422 -98.2167,238.56802 3.6395,103.9885 5.746,208.2539 14.6006,311.902 283.5094,15.1034 569.0784,11.6237 850.7139,50.0015 89.6818,71.427 -73.1053,106.5345 -142.6246,88.0926 -228.4511,-0.6071 -456.6637,-12.9262 -684.7957,-23.7759 88.0027,57.5981 157.7134,220.1729 266.5407,112.3811 60.6257,-19.5948 224.8907,-5.1927 167.2928,86.0998 99.3294,39.7862 199.0434,149.9971 144.9067,261.9249 -91.8571,60.4466 139.1803,163.4019 74.9301,168.8991 -73.5296,-58.85 -137.2744,-124.8052 -218.0446,-41.9909 -93.4448,30.8794 -219.2794,79.0805 -304.1598,6.8907 -89.0494,-104.3045 -66.9904,-267.2895 -1.0447,-378.1818 -52.3947,-34.7046 -172.7625,-182.3887 -130.1087,-34.0667 10.03,148.8889 54.2032,295.546 53.9375,444.3587 -120.151,56.5116 -109.2522,-150.9094 -138.7868,-225.9294 -28.2055,-133.4724 -31.7483,-273.2414 -51.8651,-405.7806 -215.4193,-15.533 -431.3695,-26.4373 -646.93752,-41.0446 -12.98138,241.2162 -24.70182,482.8407 -34.43966,723.9479 z M 1986,2062.3885 c 69.2236,-3.5738 227.7156,-37.5535 97.659,-98.2343 -69.5417,-36.1107 -193.8304,-227.9974 -197.6634,-44.7803 -12.5957,71.8826 -3.9942,181.3572 100.0044,143.0146 z m 206,-83.5935 c 70.3689,-95.9748 -56.8891,-202.4123 -140.8935,-229.1212 -63.7149,-6.338 -123.1458,35.2927 -41.4445,74.7661 59.8872,43.7414 122.5165,134.7384 182.338,154.3551 z m -775.1503,-564.3134 c -80.6143,-66.4816 -149.7012,-163.7479 -255.3581,-85.6307 -130.4492,36.3272 -235.71979,-114.7978 -177.03883,-229.3476 48.69413,-49.0068 -122.10367,-165.87134 -77.65594,-53.8918 3.69133,119.6638 3.67458,239.3859 5.52262,359.0792 168.04125,1.3762 337.35265,10.9581 504.53025,9.7909 z m 141.3147,-135.784 c -1.2325,-133.3844 2.4467,-266.7263 8.1617,-399.97295 -50.9045,11.36886 -216.0467,-30.02729 -146.1927,39.58446 91.4268,85.07639 70.0076,232.89239 -40.6334,290.59509 -53.1236,65.992 136.5884,136.7287 175.9105,204.9635 6.5279,-34.9565 1.0604,-92.2402 2.7539,-135.1701 z M 1163,1224.6118 c 39.0622,-16.7312 -127.0357,-146.1891 -75.8773,-19.4056 14.8419,27.1445 50.2695,24.2538 75.8773,19.4056 z m 130.3503,-62.2995 c 139.232,-40.2906 141.1179,-181.73522 60.1497,-280.57061 -129.5055,3.03995 -259.1104,1.6539 -388.5853,4.94359 58.2365,69.87026 120.7163,120.34902 195.8503,40.38456 68.2024,-33.00871 255.3913,-52.71232 198.3729,64.62263 -77.1841,16.34843 -282.8459,48.15733 -130.1337,130.30753 19.8703,6.2623 41.6192,58.5632 64.3461,40.3123 z M 454,645.99285 C 555.01765,635.67997 370.99541,551.0524 352.05207,502.48157 c -70.979,-37.0648 -43.30274,198.23001 64.38375,144.9563 l 22.36096,-0.53642 z m 82.5631,-139.3882 C 529.65624,450.47406 447.99682,335.68162 423.04159,409.98636 452.82876,436.32864 520.01242,518.096 536.5631,506.60465 Z M 1057.5,2126.2884 c -145.18738,-24.0265 -190.35225,-222.34 -100.59587,-327.9511 64.57037,-93.5151 179.85137,-155.1018 294.64197,-140.5794 -19.6381,-47.5973 133.9355,45.9291 109.2372,88.9654 61.9398,87.2388 60.1824,226.3436 -41.2646,283.7138 -76.1843,53.3431 -166.0563,101.997 -262.0187,95.8513 z m 62.756,-104.1937 c 90.1729,-25.3702 235.9685,-67.3733 211.7094,-188.2737 -18.1245,-129.9213 -221.2978,-57.4139 -272.1118,18.3628 -61.83804,56.6952 -47.4117,199.7283 60.4024,169.9109 z M 173.88652,1956.25 c -10.49646,-118.1768 246.09761,-151.1555 126.26806,-252.1614 -83.56736,-87.0048 43.34939,-175.857 93.11867,-67.4823 53.36617,132.5601 170.62431,-26.8692 265.7154,-30.9794 77.79364,-58.351 179.84341,31.1859 84.21483,88.5613 -62.09057,44.7769 -297.49697,59.0997 -158.85055,145.4869 47.1474,29.9776 139.15369,166.9431 19.02775,97.8762 -75.68951,-13.8742 -140.74688,-126.0381 -214.55387,-92.7276 -74.26582,30.8857 -144.092,83.6828 -214.94029,111.4263 z m 363.01359,-590.0984 c -83.00305,-50.6238 -173.47459,-183.3711 -272.36177,-134.4396 -67.48749,17.1599 -153.95263,99.596 -204.31437,94.0622 2.357388,-110.6947 236.732,-139.0465 145.06419,-232.9614 -88.16912,-74.7871 25.75264,-181.77013 81.37376,-85.651 43.54219,148.9327 154.44805,2.7758 238.17627,-17.17479 55.00022,-58.55076 229.75193,-73.71757 161.18349,37.91489 -66.5511,65.0779 -209.88697,88.3643 -251.15448,143.8083 37.80914,41.707 158.69296,149.3096 102.03291,194.4414 z M 1862,1329.9806 c -149.6439,-25.1874 -84.5592,-214.6548 4.2867,-273.9651 80.0323,-75.23804 218.3969,-122.79724 313.9577,-49.3206 26.0066,79.3454 -2.4244,191.2985 -104.1911,243.7699 -62.1854,43.9769 -134.9435,86.3191 -214.0533,79.5158 z m 51.619,-98.5105 c 90.5167,-21.108 220.0032,-80.391 243.7491,-157.4557 -109.4976,-1.4112 -242.0923,42.2804 -279.8788,157.6015 l 14.7379,1.392 z M 1300.2791,724.99751 c -107.9516,-23.26795 -186.9776,-171.232 -293.9713,-67.29078 -91.5187,2.5469 96.7686,-102.90686 7.0077,-133.9918 -79.44836,-42.15105 -117.16339,-216.58424 9.7918,-166.01607 61.5409,86.67337 121.2842,170.49524 215.1819,69.68453 52.3693,-58.003 200.4045,-78.2155 159.2746,34.39065 -37.8006,72.96589 -273.5558,73.84442 -141.8521,164.34192 8.0284,14.95239 119.4721,113.02658 44.5674,98.88155 z" />
  </g>
</svg>
